<?xml version="1.0" encoding="utf-8"?>
<!-- Generator: Adobe Illustrator 21.1.0, SVG Export Plug-In . SVG Version: 6.00 Build 0)  -->
<svg version="1.1" id="Слой_1" xmlns="http://www.w3.org/2000/svg" xmlns:xlink="http://www.w3.org/1999/xlink" x="0px" y="0px"
	 viewBox="0 0 20 20" style="enable-background:new 0 0 20 20;" xml:space="preserve">
<style type="text/css">
	.st0{fill:#070D10;}
</style>
<title>вк</title>
<g id="Layer_2">
	<g id="Layer_1-2">
		<path class="st0" d="M0,0v20h20V0H0z M15,11.1c0.5,0.4,0.9,0.9,1.4,1.4c0.2,0.2,0.3,0.5,0.5,0.7c0.2,0.4,0,0.8-0.3,0.8h-2
			c-0.5,0-1-0.2-1.3-0.5c-0.3-0.3-0.5-0.6-0.8-0.9c-0.1-0.1-0.2-0.2-0.4-0.3c-0.2-0.2-0.4-0.1-0.6,0c0,0-0.1,0.1-0.1,0.1
			c-0.1,0.3-0.2,0.6-0.2,0.9c0,0.5-0.2,0.6-0.6,0.6c-1,0.1-2-0.1-2.9-0.6c-0.8-0.5-1.5-1.1-2-1.8c-1-1.4-1.9-3-2.5-4.6
			C3,6.5,3.2,6.4,3.5,6.3h2c0.2,0,0.4,0.2,0.5,0.4c0.4,0.9,0.8,1.7,1.4,2.5c0.1,0.2,0.3,0.4,0.5,0.6c0.1,0.1,0.3,0.1,0.4,0
			c0,0,0.1-0.1,0.1-0.1c0.1-0.2,0.1-0.3,0.1-0.5c0.1-0.6,0.1-1.2,0-1.8c0-0.4-0.3-0.6-0.7-0.7c-0.2,0-0.2-0.1-0.1-0.2
			c0.1-0.2,0.4-0.3,0.6-0.3h2.3c0.4,0.1,0.4,0.2,0.5,0.6v2.5c0,0.1,0.1,0.6,0.3,0.6s0.3-0.1,0.5-0.2c0.5-0.6,1-1.3,1.3-2
			c0.2-0.3,0.3-0.6,0.4-1c0.1-0.2,0.3-0.4,0.5-0.3h2.4c0.4,0.1,0.5,0.2,0.4,0.6C16.7,7.4,16.4,8,16,8.5c-0.4,0.5-0.8,1-1.1,1.5
			S14.6,10.7,15,11.1L15,11.1z"/>
	</g>
</g>
</svg>
